<mxfile host="Electron" modified="2024-04-04T15:12:46.050Z" agent="Mozilla/5.0 (X11; Linux x86_64) AppleWebKit/537.36 (KHTML, like Gecko) draw.io/24.1.0 Chrome/120.0.6099.109 Electron/28.1.0 Safari/537.36" etag="0FSCG33nMC04ETACmy-a" version="24.1.0" type="device">
  <diagram name="Page-1" id="-cMVqA2Gkwa5aGeDibPs">
    <mxGraphModel dx="1490" dy="1074" grid="1" gridSize="10" guides="1" tooltips="1" connect="1" arrows="1" fold="1" page="0" pageScale="1" pageWidth="413" pageHeight="583" math="1" shadow="0">
      <root>
        <mxCell id="0" />
        <mxCell id="1" parent="0" />
        <mxCell id="GCO7xrDp6TmdYOZJOnFd-1" value="&lt;font style=&quot;font-size: 9px;&quot;&gt;$$UOelPu$$&lt;/font&gt;" style="triangle;whiteSpace=wrap;html=1;align=left;" parent="1" vertex="1">
          <mxGeometry x="-220" y="-200" width="60" height="80" as="geometry" />
        </mxCell>
        <mxCell id="eN8Zq5XajQ-hrPbZrUXH-4" value="" style="edgeStyle=orthogonalEdgeStyle;rounded=0;orthogonalLoop=1;jettySize=auto;html=1;" parent="1" source="GCO7xrDp6TmdYOZJOnFd-2" target="eN8Zq5XajQ-hrPbZrUXH-3" edge="1">
          <mxGeometry relative="1" as="geometry" />
        </mxCell>
        <mxCell id="GCO7xrDp6TmdYOZJOnFd-2" value="&lt;font style=&quot;font-size: 9px;&quot;&gt;$$UsPu$$&lt;/font&gt;" style="triangle;whiteSpace=wrap;html=1;align=left;" parent="1" vertex="1">
          <mxGeometry x="-220" y="40" width="60" height="80" as="geometry" />
        </mxCell>
        <mxCell id="eN8Zq5XajQ-hrPbZrUXH-5" style="edgeStyle=orthogonalEdgeStyle;rounded=0;orthogonalLoop=1;jettySize=auto;html=1;exitX=1;exitY=0.5;exitDx=0;exitDy=0;entryX=0;entryY=0.75;entryDx=0;entryDy=0;" parent="1" source="GCO7xrDp6TmdYOZJOnFd-3" target="GCO7xrDp6TmdYOZJOnFd-4" edge="1">
          <mxGeometry relative="1" as="geometry">
            <Array as="points">
              <mxPoint y="240" />
              <mxPoint y="180" />
            </Array>
          </mxGeometry>
        </mxCell>
        <mxCell id="GCO7xrDp6TmdYOZJOnFd-3" value="&lt;font style=&quot;font-size: 9px;&quot;&gt;$$UsRefPu$$&lt;/font&gt;" style="triangle;whiteSpace=wrap;html=1;align=left;" parent="1" vertex="1">
          <mxGeometry x="-220" y="200" width="60" height="80" as="geometry" />
        </mxCell>
        <mxCell id="eN8Zq5XajQ-hrPbZrUXH-8" value="" style="edgeStyle=orthogonalEdgeStyle;rounded=0;orthogonalLoop=1;jettySize=auto;html=1;" parent="1" source="GCO7xrDp6TmdYOZJOnFd-4" target="GCO7xrDp6TmdYOZJOnFd-120" edge="1">
          <mxGeometry relative="1" as="geometry" />
        </mxCell>
        <mxCell id="GCO7xrDp6TmdYOZJOnFd-4" value="&lt;table&gt;&lt;tbody&gt;&lt;tr&gt;&lt;td&gt;$$-1$$&lt;/td&gt;&lt;/tr&gt;&lt;tr&gt;&lt;td&gt;$$1$$&lt;/td&gt;&lt;/tr&gt;&lt;/tbody&gt;&lt;/table&gt;" style="whiteSpace=wrap;html=1;aspect=fixed;" parent="1" vertex="1">
          <mxGeometry x="40" y="120" width="80" height="80" as="geometry" />
        </mxCell>
        <mxCell id="GCO7xrDp6TmdYOZJOnFd-127" style="edgeStyle=orthogonalEdgeStyle;rounded=0;orthogonalLoop=1;jettySize=auto;html=1;exitX=0.5;exitY=1;exitDx=0;exitDy=0;" parent="1" source="GCO7xrDp6TmdYOZJOnFd-99" edge="1">
          <mxGeometry relative="1" as="geometry">
            <mxPoint x="1359.2" y="190.20000000000005" as="targetPoint" />
          </mxGeometry>
        </mxCell>
        <mxCell id="GCO7xrDp6TmdYOZJOnFd-99" value="$$\frac{1}{1+tA*s}$$" style="rounded=0;whiteSpace=wrap;html=1;" parent="1" vertex="1">
          <mxGeometry x="1319" y="120" width="80" height="80" as="geometry" />
        </mxCell>
        <mxCell id="GCO7xrDp6TmdYOZJOnFd-100" value="&lt;font style=&quot;font-size: 8px;&quot;&gt;$$FPotentialCircuit$$&lt;/font&gt;" style="rounded=0;whiteSpace=wrap;html=1;" parent="1" vertex="1">
          <mxGeometry x="600" y="739" width="80" height="80" as="geometry" />
        </mxCell>
        <mxCell id="GCO7xrDp6TmdYOZJOnFd-110" value="" style="endArrow=none;html=1;exitX=0.5;exitY=0;exitDx=0;exitDy=0;" parent="1" source="GCO7xrDp6TmdYOZJOnFd-99" edge="1">
          <mxGeometry width="50" height="50" relative="1" as="geometry">
            <mxPoint x="1359" y="130" as="sourcePoint" />
            <mxPoint x="1379" y="110" as="targetPoint" />
          </mxGeometry>
        </mxCell>
        <mxCell id="GCO7xrDp6TmdYOZJOnFd-111" value="" style="endArrow=none;html=1;" parent="1" edge="1">
          <mxGeometry width="50" height="50" relative="1" as="geometry">
            <mxPoint x="1379" y="110" as="sourcePoint" />
            <mxPoint x="1399" y="110" as="targetPoint" />
          </mxGeometry>
        </mxCell>
        <mxCell id="GCO7xrDp6TmdYOZJOnFd-112" value="&lt;font style=&quot;font-size: 9px;&quot;&gt;$$VaMaxPu$$&lt;/font&gt;" style="text;html=1;strokeColor=none;fillColor=none;align=center;verticalAlign=middle;whiteSpace=wrap;rounded=0;fontSize=15;" parent="1" vertex="1">
          <mxGeometry x="1363" y="80" width="60" height="30" as="geometry" />
        </mxCell>
        <mxCell id="GCO7xrDp6TmdYOZJOnFd-113" value="" style="endArrow=none;html=1;" parent="1" edge="1">
          <mxGeometry width="50" height="50" relative="1" as="geometry">
            <mxPoint x="1320" y="210" as="sourcePoint" />
            <mxPoint x="1300" y="210" as="targetPoint" />
          </mxGeometry>
        </mxCell>
        <mxCell id="GCO7xrDp6TmdYOZJOnFd-114" value="&lt;font style=&quot;font-size: 9px;&quot;&gt;$$VaMinPu$$&lt;/font&gt;" style="text;html=1;strokeColor=none;fillColor=none;align=center;verticalAlign=middle;whiteSpace=wrap;rounded=0;fontSize=15;" parent="1" vertex="1">
          <mxGeometry x="1279" y="206" width="60" height="30" as="geometry" />
        </mxCell>
        <mxCell id="GCO7xrDp6TmdYOZJOnFd-115" value="" style="endArrow=none;html=1;exitX=0.5;exitY=0;exitDx=0;exitDy=0;entryX=0.25;entryY=1;entryDx=0;entryDy=0;" parent="1" target="GCO7xrDp6TmdYOZJOnFd-99" edge="1">
          <mxGeometry width="50" height="50" relative="1" as="geometry">
            <mxPoint x="1320" y="210" as="sourcePoint" />
            <mxPoint x="1340" y="190" as="targetPoint" />
          </mxGeometry>
        </mxCell>
        <mxCell id="5HqrGk9MGbXyAHrSEdPO-14" value="" style="edgeStyle=orthogonalEdgeStyle;rounded=0;orthogonalLoop=1;jettySize=auto;html=1;" parent="1" source="GCO7xrDp6TmdYOZJOnFd-120" target="hHR6AVDcYujb22-yYQ_T-5" edge="1">
          <mxGeometry relative="1" as="geometry" />
        </mxCell>
        <mxCell id="GCO7xrDp6TmdYOZJOnFd-120" value="&lt;table style=&quot;&quot;&gt;&lt;tbody&gt;&lt;tr&gt;&lt;td&gt;&lt;font style=&quot;font-size: 12px;&quot;&gt;$$+$$&lt;/font&gt;&lt;/td&gt;&lt;/tr&gt;&lt;/tbody&gt;&lt;/table&gt;" style="whiteSpace=wrap;html=1;aspect=fixed;" parent="1" vertex="1">
          <mxGeometry x="200" y="120" width="80" height="80" as="geometry" />
        </mxCell>
        <mxCell id="GCO7xrDp6TmdYOZJOnFd-126" value="$$\frac{1}{1+tG*s}$$" style="rounded=0;whiteSpace=wrap;html=1;" parent="1" vertex="1">
          <mxGeometry x="1200" y="-160" width="80" height="80" as="geometry" />
        </mxCell>
        <mxCell id="5HqrGk9MGbXyAHrSEdPO-71" value="" style="edgeStyle=orthogonalEdgeStyle;rounded=0;orthogonalLoop=1;jettySize=auto;html=1;" parent="1" source="pcb0Rrb9AqgbB0oOaPCg-9" target="5HqrGk9MGbXyAHrSEdPO-64" edge="1">
          <mxGeometry relative="1" as="geometry" />
        </mxCell>
        <mxCell id="pcb0Rrb9AqgbB0oOaPCg-9" value="$$*$$" style="rounded=0;whiteSpace=wrap;html=1;" parent="1" vertex="1">
          <mxGeometry x="1200" y="719" width="80" height="80" as="geometry" />
        </mxCell>
        <mxCell id="pcb0Rrb9AqgbB0oOaPCg-12" value="$$Kc$$" style="rounded=0;whiteSpace=wrap;html=1;" parent="1" vertex="1">
          <mxGeometry x="760" y="559" width="80" height="80" as="geometry" />
        </mxCell>
        <mxCell id="pcb0Rrb9AqgbB0oOaPCg-23" value="&lt;font style=&quot;font-size: 10px;&quot;&gt;$$EfdPu$$&lt;/font&gt;" style="triangle;whiteSpace=wrap;html=1;align=left;" parent="1" vertex="1">
          <mxGeometry x="1600" y="280" width="60" height="80" as="geometry" />
        </mxCell>
        <mxCell id="eN8Zq5XajQ-hrPbZrUXH-3" value="$$\frac{1}{1+tR*s}$$" style="whiteSpace=wrap;html=1;aspect=fixed;" parent="1" vertex="1">
          <mxGeometry x="-120" y="40" width="80" height="80" as="geometry" />
        </mxCell>
        <mxCell id="eN8Zq5XajQ-hrPbZrUXH-10" value="&lt;font style=&quot;font-size: 9px;&quot;&gt;$$UUelPu$$&lt;/font&gt;" style="triangle;whiteSpace=wrap;html=1;align=left;" parent="1" vertex="1">
          <mxGeometry x="-220" y="319" width="60" height="80" as="geometry" />
        </mxCell>
        <mxCell id="eN8Zq5XajQ-hrPbZrUXH-11" value="&lt;font style=&quot;font-size: 9px;&quot;&gt;$$UPssPu$$&lt;/font&gt;" style="triangle;whiteSpace=wrap;html=1;align=left;" parent="1" vertex="1">
          <mxGeometry x="-220" y="-80" width="60" height="80" as="geometry" />
        </mxCell>
        <mxCell id="eN8Zq5XajQ-hrPbZrUXH-12" value="" style="endArrow=classic;html=1;rounded=0;exitX=1;exitY=0.5;exitDx=0;exitDy=0;entryX=0;entryY=0;entryDx=0;entryDy=0;" parent="1" source="GCO7xrDp6TmdYOZJOnFd-1" target="GCO7xrDp6TmdYOZJOnFd-120" edge="1">
          <mxGeometry width="50" height="50" relative="1" as="geometry">
            <mxPoint x="-120" y="-160" as="sourcePoint" />
            <mxPoint x="-70" y="-210" as="targetPoint" />
            <Array as="points">
              <mxPoint x="160" y="-160" />
              <mxPoint x="160" y="120" />
            </Array>
          </mxGeometry>
        </mxCell>
        <mxCell id="eN8Zq5XajQ-hrPbZrUXH-13" value="" style="endArrow=classic;html=1;rounded=0;exitX=1;exitY=0.5;exitDx=0;exitDy=0;entryX=0;entryY=0.25;entryDx=0;entryDy=0;" parent="1" source="eN8Zq5XajQ-hrPbZrUXH-11" target="GCO7xrDp6TmdYOZJOnFd-120" edge="1">
          <mxGeometry width="50" height="50" relative="1" as="geometry">
            <mxPoint x="-140" y="-40" as="sourcePoint" />
            <mxPoint x="-90" y="-90" as="targetPoint" />
            <Array as="points">
              <mxPoint x="140" y="-40" />
              <mxPoint x="140" y="140" />
            </Array>
          </mxGeometry>
        </mxCell>
        <mxCell id="eN8Zq5XajQ-hrPbZrUXH-14" value="" style="endArrow=classic;html=1;rounded=0;exitX=1;exitY=0.5;exitDx=0;exitDy=0;entryX=0;entryY=0.75;entryDx=0;entryDy=0;" parent="1" source="eN8Zq5XajQ-hrPbZrUXH-10" target="GCO7xrDp6TmdYOZJOnFd-120" edge="1">
          <mxGeometry width="50" height="50" relative="1" as="geometry">
            <mxPoint x="-110" y="260" as="sourcePoint" />
            <mxPoint x="-60" y="210" as="targetPoint" />
            <Array as="points">
              <mxPoint x="160" y="360" />
              <mxPoint x="160" y="180" />
            </Array>
          </mxGeometry>
        </mxCell>
        <mxCell id="5HqrGk9MGbXyAHrSEdPO-49" value="" style="edgeStyle=orthogonalEdgeStyle;rounded=0;orthogonalLoop=1;jettySize=auto;html=1;" parent="1" source="eN8Zq5XajQ-hrPbZrUXH-25" target="5HqrGk9MGbXyAHrSEdPO-36" edge="1">
          <mxGeometry relative="1" as="geometry" />
        </mxCell>
        <mxCell id="eN8Zq5XajQ-hrPbZrUXH-25" value="" style="ellipse;whiteSpace=wrap;html=1;aspect=fixed;" parent="1" vertex="1">
          <mxGeometry x="780" y="140" width="40" height="40" as="geometry" />
        </mxCell>
        <mxCell id="eN8Zq5XajQ-hrPbZrUXH-26" value="+" style="text;html=1;strokeColor=none;fillColor=none;align=center;verticalAlign=middle;whiteSpace=wrap;rounded=0;fontSize=20;" parent="1" vertex="1">
          <mxGeometry x="740" y="160.5" width="60" height="31" as="geometry" />
        </mxCell>
        <mxCell id="eN8Zq5XajQ-hrPbZrUXH-27" value="-" style="text;html=1;strokeColor=none;fillColor=none;align=center;verticalAlign=middle;whiteSpace=wrap;rounded=0;fontSize=20;" parent="1" vertex="1">
          <mxGeometry x="793" y="110" width="60" height="30" as="geometry" />
        </mxCell>
        <mxCell id="t_mE9f2brvJdx7QCc9mF-1" value="" style="endArrow=classic;html=1;rounded=0;exitX=1;exitY=0.5;exitDx=0;exitDy=0;entryX=0;entryY=0.25;entryDx=0;entryDy=0;" parent="1" source="eN8Zq5XajQ-hrPbZrUXH-3" target="GCO7xrDp6TmdYOZJOnFd-4" edge="1">
          <mxGeometry width="50" height="50" relative="1" as="geometry">
            <mxPoint x="-10" y="80" as="sourcePoint" />
            <mxPoint x="40" y="30" as="targetPoint" />
            <Array as="points">
              <mxPoint y="80" />
              <mxPoint y="140" />
            </Array>
          </mxGeometry>
        </mxCell>
        <mxCell id="5HqrGk9MGbXyAHrSEdPO-29" value="" style="edgeStyle=orthogonalEdgeStyle;rounded=0;orthogonalLoop=1;jettySize=auto;html=1;" parent="1" source="hHR6AVDcYujb22-yYQ_T-5" target="5HqrGk9MGbXyAHrSEdPO-17" edge="1">
          <mxGeometry relative="1" as="geometry" />
        </mxCell>
        <mxCell id="hHR6AVDcYujb22-yYQ_T-5" value="" style="whiteSpace=wrap;html=1;aspect=fixed;" parent="1" vertex="1">
          <mxGeometry x="360" y="120" width="80" height="80" as="geometry" />
        </mxCell>
        <mxCell id="hHR6AVDcYujb22-yYQ_T-6" value="" style="endArrow=classic;html=1;entryX=0;entryY=0.5;entryDx=0;entryDy=0;" parent="1" target="hHR6AVDcYujb22-yYQ_T-5" edge="1">
          <mxGeometry width="50" height="50" relative="1" as="geometry">
            <mxPoint x="320" y="160" as="sourcePoint" />
            <mxPoint x="480" y="190" as="targetPoint" />
          </mxGeometry>
        </mxCell>
        <mxCell id="hHR6AVDcYujb22-yYQ_T-7" value="" style="endArrow=none;html=1;" parent="1" edge="1">
          <mxGeometry width="50" height="50" relative="1" as="geometry">
            <mxPoint x="388" y="175" as="sourcePoint" />
            <mxPoint x="412" y="145" as="targetPoint" />
          </mxGeometry>
        </mxCell>
        <mxCell id="hHR6AVDcYujb22-yYQ_T-8" value="" style="endArrow=none;html=1;" parent="1" edge="1">
          <mxGeometry width="50" height="50" relative="1" as="geometry">
            <mxPoint x="412" y="145" as="sourcePoint" />
            <mxPoint x="432" y="145" as="targetPoint" />
          </mxGeometry>
        </mxCell>
        <mxCell id="hHR6AVDcYujb22-yYQ_T-9" value="" style="endArrow=none;html=1;" parent="1" edge="1">
          <mxGeometry width="50" height="50" relative="1" as="geometry">
            <mxPoint x="388" y="175" as="sourcePoint" />
            <mxPoint x="368" y="175" as="targetPoint" />
          </mxGeometry>
        </mxCell>
        <mxCell id="hHR6AVDcYujb22-yYQ_T-10" value="" style="endArrow=classic;html=1;entryX=0;entryY=0.5;entryDx=0;entryDy=0;" parent="1" edge="1">
          <mxGeometry width="50" height="50" relative="1" as="geometry">
            <mxPoint x="320" y="177" as="sourcePoint" />
            <mxPoint x="359.9999999999999" y="177" as="targetPoint" />
          </mxGeometry>
        </mxCell>
        <mxCell id="hHR6AVDcYujb22-yYQ_T-11" value="" style="endArrow=classic;html=1;entryX=0;entryY=0.5;entryDx=0;entryDy=0;" parent="1" edge="1">
          <mxGeometry width="50" height="50" relative="1" as="geometry">
            <mxPoint x="320" y="145" as="sourcePoint" />
            <mxPoint x="359.9999999999999" y="145" as="targetPoint" />
          </mxGeometry>
        </mxCell>
        <mxCell id="5HqrGk9MGbXyAHrSEdPO-15" style="edgeStyle=orthogonalEdgeStyle;rounded=0;orthogonalLoop=1;jettySize=auto;html=1;exitX=0.5;exitY=1;exitDx=0;exitDy=0;" parent="1" source="5HqrGk9MGbXyAHrSEdPO-16" edge="1">
          <mxGeometry relative="1" as="geometry">
            <mxPoint x="560.2" y="70.20000000000005" as="targetPoint" />
          </mxGeometry>
        </mxCell>
        <mxCell id="5HqrGk9MGbXyAHrSEdPO-16" value="$$\frac{Kir}{s}$$" style="rounded=0;whiteSpace=wrap;html=1;" parent="1" vertex="1">
          <mxGeometry x="520" width="80" height="80" as="geometry" />
        </mxCell>
        <mxCell id="5HqrGk9MGbXyAHrSEdPO-17" value="$$Kpr$$" style="rounded=0;whiteSpace=wrap;html=1;" parent="1" vertex="1">
          <mxGeometry x="519" y="120" width="80" height="80" as="geometry" />
        </mxCell>
        <mxCell id="5HqrGk9MGbXyAHrSEdPO-18" value="" style="ellipse;whiteSpace=wrap;html=1;aspect=fixed;" parent="1" vertex="1">
          <mxGeometry x="659" y="140" width="40" height="40" as="geometry" />
        </mxCell>
        <mxCell id="5HqrGk9MGbXyAHrSEdPO-19" value="" style="edgeStyle=elbowEdgeStyle;elbow=horizontal;endArrow=classic;html=1;curved=0;rounded=0;endSize=8;startSize=8;exitX=1;exitY=0.5;exitDx=0;exitDy=0;entryX=0;entryY=0.5;entryDx=0;entryDy=0;" parent="1" source="5HqrGk9MGbXyAHrSEdPO-17" target="5HqrGk9MGbXyAHrSEdPO-18" edge="1">
          <mxGeometry width="50" height="50" relative="1" as="geometry">
            <mxPoint x="433" y="169" as="sourcePoint" />
            <mxPoint x="533" y="169" as="targetPoint" />
          </mxGeometry>
        </mxCell>
        <mxCell id="5HqrGk9MGbXyAHrSEdPO-20" value="" style="edgeStyle=elbowEdgeStyle;elbow=horizontal;endArrow=classic;html=1;curved=0;rounded=0;endSize=8;startSize=8;exitX=1;exitY=0.5;exitDx=0;exitDy=0;entryX=0.5;entryY=0;entryDx=0;entryDy=0;" parent="1" source="5HqrGk9MGbXyAHrSEdPO-16" target="5HqrGk9MGbXyAHrSEdPO-18" edge="1">
          <mxGeometry width="50" height="50" relative="1" as="geometry">
            <mxPoint x="613" y="169" as="sourcePoint" />
            <mxPoint x="653" y="169" as="targetPoint" />
            <Array as="points">
              <mxPoint x="679" y="90" />
            </Array>
          </mxGeometry>
        </mxCell>
        <mxCell id="5HqrGk9MGbXyAHrSEdPO-21" value="+" style="text;html=1;strokeColor=none;fillColor=none;align=center;verticalAlign=middle;whiteSpace=wrap;rounded=0;fontSize=20;" parent="1" vertex="1">
          <mxGeometry x="618" y="159" width="60" height="30" as="geometry" />
        </mxCell>
        <mxCell id="5HqrGk9MGbXyAHrSEdPO-22" value="+" style="text;html=1;strokeColor=none;fillColor=none;align=center;verticalAlign=middle;whiteSpace=wrap;rounded=0;fontSize=20;" parent="1" vertex="1">
          <mxGeometry x="668" y="109" width="60" height="30" as="geometry" />
        </mxCell>
        <mxCell id="5HqrGk9MGbXyAHrSEdPO-23" value="" style="endArrow=none;html=1;exitX=0.5;exitY=0;exitDx=0;exitDy=0;" parent="1" source="5HqrGk9MGbXyAHrSEdPO-16" edge="1">
          <mxGeometry width="50" height="50" relative="1" as="geometry">
            <mxPoint x="560" y="10" as="sourcePoint" />
            <mxPoint x="580" y="-10" as="targetPoint" />
          </mxGeometry>
        </mxCell>
        <mxCell id="5HqrGk9MGbXyAHrSEdPO-24" value="" style="endArrow=none;html=1;" parent="1" edge="1">
          <mxGeometry width="50" height="50" relative="1" as="geometry">
            <mxPoint x="580" y="-10" as="sourcePoint" />
            <mxPoint x="600" y="-10" as="targetPoint" />
          </mxGeometry>
        </mxCell>
        <mxCell id="5HqrGk9MGbXyAHrSEdPO-25" value="&lt;font style=&quot;font-size: 9px;&quot;&gt;$$VrMaxPu$$&lt;/font&gt;" style="text;html=1;strokeColor=none;fillColor=none;align=center;verticalAlign=middle;whiteSpace=wrap;rounded=0;fontSize=15;" parent="1" vertex="1">
          <mxGeometry x="564" y="-40" width="60" height="30" as="geometry" />
        </mxCell>
        <mxCell id="5HqrGk9MGbXyAHrSEdPO-26" value="" style="endArrow=none;html=1;" parent="1" edge="1">
          <mxGeometry width="50" height="50" relative="1" as="geometry">
            <mxPoint x="521" y="90" as="sourcePoint" />
            <mxPoint x="501" y="90" as="targetPoint" />
          </mxGeometry>
        </mxCell>
        <mxCell id="5HqrGk9MGbXyAHrSEdPO-27" value="&lt;font style=&quot;font-size: 9px;&quot;&gt;$$VrMinPu$$&lt;/font&gt;" style="text;html=1;strokeColor=none;fillColor=none;align=center;verticalAlign=middle;whiteSpace=wrap;rounded=0;fontSize=15;" parent="1" vertex="1">
          <mxGeometry x="480" y="86" width="60" height="30" as="geometry" />
        </mxCell>
        <mxCell id="5HqrGk9MGbXyAHrSEdPO-28" value="" style="endArrow=none;html=1;exitX=0.5;exitY=0;exitDx=0;exitDy=0;entryX=0.25;entryY=1;entryDx=0;entryDy=0;" parent="1" target="5HqrGk9MGbXyAHrSEdPO-16" edge="1">
          <mxGeometry width="50" height="50" relative="1" as="geometry">
            <mxPoint x="521" y="90" as="sourcePoint" />
            <mxPoint x="541" y="70" as="targetPoint" />
          </mxGeometry>
        </mxCell>
        <mxCell id="5HqrGk9MGbXyAHrSEdPO-30" value="" style="endArrow=classic;html=1;rounded=0;exitX=1;exitY=0.5;exitDx=0;exitDy=0;entryX=0;entryY=0.5;entryDx=0;entryDy=0;" parent="1" source="hHR6AVDcYujb22-yYQ_T-5" target="5HqrGk9MGbXyAHrSEdPO-16" edge="1">
          <mxGeometry width="50" height="50" relative="1" as="geometry">
            <mxPoint x="465" y="200" as="sourcePoint" />
            <mxPoint x="515" y="150" as="targetPoint" />
            <Array as="points">
              <mxPoint x="480" y="160" />
              <mxPoint x="480" y="40" />
            </Array>
          </mxGeometry>
        </mxCell>
        <mxCell id="5HqrGk9MGbXyAHrSEdPO-32" value="" style="endArrow=classic;html=1;rounded=0;exitX=1;exitY=0.5;exitDx=0;exitDy=0;entryX=0;entryY=0.5;entryDx=0;entryDy=0;" parent="1" source="5HqrGk9MGbXyAHrSEdPO-18" target="eN8Zq5XajQ-hrPbZrUXH-25" edge="1">
          <mxGeometry width="50" height="50" relative="1" as="geometry">
            <mxPoint x="720" y="159" as="sourcePoint" />
            <mxPoint x="770" y="109" as="targetPoint" />
          </mxGeometry>
        </mxCell>
        <mxCell id="5HqrGk9MGbXyAHrSEdPO-34" style="edgeStyle=orthogonalEdgeStyle;rounded=0;orthogonalLoop=1;jettySize=auto;html=1;exitX=0.5;exitY=1;exitDx=0;exitDy=0;" parent="1" source="5HqrGk9MGbXyAHrSEdPO-35" edge="1">
          <mxGeometry relative="1" as="geometry">
            <mxPoint x="960.2" y="70.20000000000005" as="targetPoint" />
          </mxGeometry>
        </mxCell>
        <mxCell id="5HqrGk9MGbXyAHrSEdPO-35" value="$$\frac{Kim}{s}$$" style="rounded=0;whiteSpace=wrap;html=1;" parent="1" vertex="1">
          <mxGeometry x="920" width="80" height="80" as="geometry" />
        </mxCell>
        <mxCell id="5HqrGk9MGbXyAHrSEdPO-36" value="$$Kpm$$" style="rounded=0;whiteSpace=wrap;html=1;" parent="1" vertex="1">
          <mxGeometry x="919" y="120" width="80" height="80" as="geometry" />
        </mxCell>
        <mxCell id="5HqrGk9MGbXyAHrSEdPO-58" value="" style="edgeStyle=orthogonalEdgeStyle;rounded=0;orthogonalLoop=1;jettySize=auto;html=1;" parent="1" source="5HqrGk9MGbXyAHrSEdPO-37" target="5HqrGk9MGbXyAHrSEdPO-51" edge="1">
          <mxGeometry relative="1" as="geometry" />
        </mxCell>
        <mxCell id="5HqrGk9MGbXyAHrSEdPO-37" value="" style="ellipse;whiteSpace=wrap;html=1;aspect=fixed;" parent="1" vertex="1">
          <mxGeometry x="1059" y="140" width="40" height="40" as="geometry" />
        </mxCell>
        <mxCell id="5HqrGk9MGbXyAHrSEdPO-38" value="" style="edgeStyle=elbowEdgeStyle;elbow=horizontal;endArrow=classic;html=1;curved=0;rounded=0;endSize=8;startSize=8;exitX=1;exitY=0.5;exitDx=0;exitDy=0;entryX=0;entryY=0.5;entryDx=0;entryDy=0;" parent="1" source="5HqrGk9MGbXyAHrSEdPO-36" target="5HqrGk9MGbXyAHrSEdPO-37" edge="1">
          <mxGeometry width="50" height="50" relative="1" as="geometry">
            <mxPoint x="833" y="169" as="sourcePoint" />
            <mxPoint x="933" y="169" as="targetPoint" />
          </mxGeometry>
        </mxCell>
        <mxCell id="5HqrGk9MGbXyAHrSEdPO-39" value="" style="edgeStyle=elbowEdgeStyle;elbow=horizontal;endArrow=classic;html=1;curved=0;rounded=0;endSize=8;startSize=8;exitX=1;exitY=0.5;exitDx=0;exitDy=0;entryX=0.5;entryY=0;entryDx=0;entryDy=0;" parent="1" source="5HqrGk9MGbXyAHrSEdPO-35" target="5HqrGk9MGbXyAHrSEdPO-37" edge="1">
          <mxGeometry width="50" height="50" relative="1" as="geometry">
            <mxPoint x="1013" y="169" as="sourcePoint" />
            <mxPoint x="1053" y="169" as="targetPoint" />
            <Array as="points">
              <mxPoint x="1079" y="90" />
            </Array>
          </mxGeometry>
        </mxCell>
        <mxCell id="5HqrGk9MGbXyAHrSEdPO-40" value="+" style="text;html=1;strokeColor=none;fillColor=none;align=center;verticalAlign=middle;whiteSpace=wrap;rounded=0;fontSize=20;" parent="1" vertex="1">
          <mxGeometry x="1018" y="159" width="60" height="30" as="geometry" />
        </mxCell>
        <mxCell id="5HqrGk9MGbXyAHrSEdPO-41" value="+" style="text;html=1;strokeColor=none;fillColor=none;align=center;verticalAlign=middle;whiteSpace=wrap;rounded=0;fontSize=20;" parent="1" vertex="1">
          <mxGeometry x="1068" y="109" width="60" height="30" as="geometry" />
        </mxCell>
        <mxCell id="5HqrGk9MGbXyAHrSEdPO-42" value="" style="endArrow=none;html=1;exitX=0.5;exitY=0;exitDx=0;exitDy=0;" parent="1" source="5HqrGk9MGbXyAHrSEdPO-35" edge="1">
          <mxGeometry width="50" height="50" relative="1" as="geometry">
            <mxPoint x="960" y="10" as="sourcePoint" />
            <mxPoint x="980" y="-10" as="targetPoint" />
          </mxGeometry>
        </mxCell>
        <mxCell id="5HqrGk9MGbXyAHrSEdPO-43" value="" style="endArrow=none;html=1;" parent="1" edge="1">
          <mxGeometry width="50" height="50" relative="1" as="geometry">
            <mxPoint x="980" y="-10" as="sourcePoint" />
            <mxPoint x="1000" y="-10" as="targetPoint" />
          </mxGeometry>
        </mxCell>
        <mxCell id="5HqrGk9MGbXyAHrSEdPO-44" value="&lt;font style=&quot;font-size: 9px;&quot;&gt;$$VmMaxPu$$&lt;/font&gt;" style="text;html=1;strokeColor=none;fillColor=none;align=center;verticalAlign=middle;whiteSpace=wrap;rounded=0;fontSize=15;" parent="1" vertex="1">
          <mxGeometry x="964" y="-40" width="60" height="30" as="geometry" />
        </mxCell>
        <mxCell id="5HqrGk9MGbXyAHrSEdPO-45" value="" style="endArrow=none;html=1;" parent="1" edge="1">
          <mxGeometry width="50" height="50" relative="1" as="geometry">
            <mxPoint x="921" y="90" as="sourcePoint" />
            <mxPoint x="901" y="90" as="targetPoint" />
          </mxGeometry>
        </mxCell>
        <mxCell id="5HqrGk9MGbXyAHrSEdPO-46" value="&lt;font style=&quot;font-size: 9px;&quot;&gt;$$VmMinPu$$&lt;/font&gt;" style="text;html=1;strokeColor=none;fillColor=none;align=center;verticalAlign=middle;whiteSpace=wrap;rounded=0;fontSize=15;" parent="1" vertex="1">
          <mxGeometry x="880" y="86" width="60" height="30" as="geometry" />
        </mxCell>
        <mxCell id="5HqrGk9MGbXyAHrSEdPO-47" value="" style="endArrow=none;html=1;exitX=0.5;exitY=0;exitDx=0;exitDy=0;entryX=0.25;entryY=1;entryDx=0;entryDy=0;" parent="1" target="5HqrGk9MGbXyAHrSEdPO-35" edge="1">
          <mxGeometry width="50" height="50" relative="1" as="geometry">
            <mxPoint x="921" y="90" as="sourcePoint" />
            <mxPoint x="941" y="70" as="targetPoint" />
          </mxGeometry>
        </mxCell>
        <mxCell id="5HqrGk9MGbXyAHrSEdPO-50" value="" style="endArrow=classic;html=1;rounded=0;exitX=1;exitY=0.5;exitDx=0;exitDy=0;entryX=0;entryY=0.5;entryDx=0;entryDy=0;" parent="1" source="eN8Zq5XajQ-hrPbZrUXH-25" target="5HqrGk9MGbXyAHrSEdPO-35" edge="1">
          <mxGeometry width="50" height="50" relative="1" as="geometry">
            <mxPoint x="880" y="80" as="sourcePoint" />
            <mxPoint x="900" y="40" as="targetPoint" />
            <Array as="points">
              <mxPoint x="880" y="160" />
              <mxPoint x="880" y="40" />
            </Array>
          </mxGeometry>
        </mxCell>
        <mxCell id="5HqrGk9MGbXyAHrSEdPO-59" value="" style="edgeStyle=orthogonalEdgeStyle;rounded=0;orthogonalLoop=1;jettySize=auto;html=1;" parent="1" source="5HqrGk9MGbXyAHrSEdPO-51" target="GCO7xrDp6TmdYOZJOnFd-99" edge="1">
          <mxGeometry relative="1" as="geometry" />
        </mxCell>
        <mxCell id="5HqrGk9MGbXyAHrSEdPO-51" value="" style="whiteSpace=wrap;html=1;aspect=fixed;" parent="1" vertex="1">
          <mxGeometry x="1199" y="120" width="80" height="80" as="geometry" />
        </mxCell>
        <mxCell id="5HqrGk9MGbXyAHrSEdPO-52" value="" style="endArrow=classic;html=1;entryX=0;entryY=0.5;entryDx=0;entryDy=0;" parent="1" target="5HqrGk9MGbXyAHrSEdPO-51" edge="1">
          <mxGeometry width="50" height="50" relative="1" as="geometry">
            <mxPoint x="1159" y="160" as="sourcePoint" />
            <mxPoint x="1319" y="190" as="targetPoint" />
          </mxGeometry>
        </mxCell>
        <mxCell id="5HqrGk9MGbXyAHrSEdPO-53" value="" style="endArrow=none;html=1;" parent="1" edge="1">
          <mxGeometry width="50" height="50" relative="1" as="geometry">
            <mxPoint x="1227" y="175" as="sourcePoint" />
            <mxPoint x="1251" y="145" as="targetPoint" />
          </mxGeometry>
        </mxCell>
        <mxCell id="5HqrGk9MGbXyAHrSEdPO-54" value="" style="endArrow=none;html=1;" parent="1" edge="1">
          <mxGeometry width="50" height="50" relative="1" as="geometry">
            <mxPoint x="1251" y="145" as="sourcePoint" />
            <mxPoint x="1271" y="145" as="targetPoint" />
          </mxGeometry>
        </mxCell>
        <mxCell id="5HqrGk9MGbXyAHrSEdPO-55" value="" style="endArrow=none;html=1;" parent="1" edge="1">
          <mxGeometry width="50" height="50" relative="1" as="geometry">
            <mxPoint x="1227" y="175" as="sourcePoint" />
            <mxPoint x="1207" y="175" as="targetPoint" />
          </mxGeometry>
        </mxCell>
        <mxCell id="5HqrGk9MGbXyAHrSEdPO-56" value="" style="endArrow=classic;html=1;entryX=0;entryY=0.75;entryDx=0;entryDy=0;" parent="1" target="5HqrGk9MGbXyAHrSEdPO-51" edge="1">
          <mxGeometry width="50" height="50" relative="1" as="geometry">
            <mxPoint x="1159" y="180" as="sourcePoint" />
            <mxPoint x="1190" y="180" as="targetPoint" />
          </mxGeometry>
        </mxCell>
        <mxCell id="5HqrGk9MGbXyAHrSEdPO-57" value="" style="endArrow=classic;html=1;entryX=0;entryY=0.25;entryDx=0;entryDy=0;" parent="1" target="5HqrGk9MGbXyAHrSEdPO-51" edge="1">
          <mxGeometry width="50" height="50" relative="1" as="geometry">
            <mxPoint x="1159" y="140" as="sourcePoint" />
            <mxPoint x="1190" y="150" as="targetPoint" />
          </mxGeometry>
        </mxCell>
        <mxCell id="5HqrGk9MGbXyAHrSEdPO-62" value="" style="edgeStyle=orthogonalEdgeStyle;rounded=0;orthogonalLoop=1;jettySize=auto;html=1;" parent="1" source="5HqrGk9MGbXyAHrSEdPO-60" target="pcb0Rrb9AqgbB0oOaPCg-23" edge="1">
          <mxGeometry relative="1" as="geometry" />
        </mxCell>
        <mxCell id="5HqrGk9MGbXyAHrSEdPO-60" value="$$*$$" style="rounded=0;whiteSpace=wrap;html=1;" parent="1" vertex="1">
          <mxGeometry x="1479" y="280" width="80" height="80" as="geometry" />
        </mxCell>
        <mxCell id="5HqrGk9MGbXyAHrSEdPO-61" value="" style="endArrow=classic;html=1;rounded=0;exitX=1;exitY=0.5;exitDx=0;exitDy=0;entryX=0;entryY=0.25;entryDx=0;entryDy=0;" parent="1" source="GCO7xrDp6TmdYOZJOnFd-99" target="5HqrGk9MGbXyAHrSEdPO-60" edge="1">
          <mxGeometry width="50" height="50" relative="1" as="geometry">
            <mxPoint x="970" y="440" as="sourcePoint" />
            <mxPoint x="1020" y="390" as="targetPoint" />
            <Array as="points">
              <mxPoint x="1440" y="160" />
              <mxPoint x="1440" y="300" />
            </Array>
          </mxGeometry>
        </mxCell>
        <mxCell id="5HqrGk9MGbXyAHrSEdPO-64" value="" style="whiteSpace=wrap;html=1;aspect=fixed;" parent="1" vertex="1">
          <mxGeometry x="1320" y="719" width="80" height="80" as="geometry" />
        </mxCell>
        <mxCell id="5HqrGk9MGbXyAHrSEdPO-65" value="" style="endArrow=none;html=1;" parent="1" edge="1">
          <mxGeometry width="50" height="50" relative="1" as="geometry">
            <mxPoint x="1348" y="775" as="sourcePoint" />
            <mxPoint x="1372" y="745" as="targetPoint" />
          </mxGeometry>
        </mxCell>
        <mxCell id="5HqrGk9MGbXyAHrSEdPO-66" value="" style="endArrow=none;html=1;" parent="1" edge="1">
          <mxGeometry width="50" height="50" relative="1" as="geometry">
            <mxPoint x="1372" y="745" as="sourcePoint" />
            <mxPoint x="1392" y="745" as="targetPoint" />
          </mxGeometry>
        </mxCell>
        <mxCell id="5HqrGk9MGbXyAHrSEdPO-67" value="&lt;font style=&quot;font-size: 9px;&quot;&gt;$$VgMaxPu$$&lt;/font&gt;" style="text;html=1;strokeColor=none;fillColor=none;align=center;verticalAlign=middle;whiteSpace=wrap;rounded=0;fontSize=15;" parent="1" vertex="1">
          <mxGeometry x="1364" y="690" width="60" height="30" as="geometry" />
        </mxCell>
        <mxCell id="5HqrGk9MGbXyAHrSEdPO-70" value="" style="endArrow=classic;html=1;rounded=0;exitX=1;exitY=0.5;exitDx=0;exitDy=0;entryX=0;entryY=0.75;entryDx=0;entryDy=0;" parent="1" source="5HqrGk9MGbXyAHrSEdPO-64" target="5HqrGk9MGbXyAHrSEdPO-60" edge="1">
          <mxGeometry width="50" height="50" relative="1" as="geometry">
            <mxPoint x="1421" y="481" as="sourcePoint" />
            <mxPoint x="1471" y="431" as="targetPoint" />
            <Array as="points">
              <mxPoint x="1440" y="759" />
              <mxPoint x="1440" y="340" />
            </Array>
          </mxGeometry>
        </mxCell>
        <mxCell id="yuVk0EhnXVRBRO2mFo1Z-3" value="" style="edgeStyle=orthogonalEdgeStyle;rounded=0;orthogonalLoop=1;jettySize=auto;html=1;" parent="1" source="yuVk0EhnXVRBRO2mFo1Z-1" target="yuVk0EhnXVRBRO2mFo1Z-2" edge="1">
          <mxGeometry relative="1" as="geometry" />
        </mxCell>
        <mxCell id="yuVk0EhnXVRBRO2mFo1Z-1" value="$$:$$" style="rounded=0;whiteSpace=wrap;html=1;" parent="1" vertex="1">
          <mxGeometry x="920" y="639" width="80" height="80" as="geometry" />
        </mxCell>
        <mxCell id="yuVk0EhnXVRBRO2mFo1Z-2" value="$$FRectifier$$" style="rounded=0;whiteSpace=wrap;html=1;" parent="1" vertex="1">
          <mxGeometry x="1039" y="639" width="80" height="80" as="geometry" />
        </mxCell>
        <mxCell id="yuVk0EhnXVRBRO2mFo1Z-6" value="" style="endArrow=classic;html=1;rounded=0;exitX=1;exitY=0.5;exitDx=0;exitDy=0;entryX=0;entryY=0.25;entryDx=0;entryDy=0;" parent="1" target="yuVk0EhnXVRBRO2mFo1Z-1" edge="1">
          <mxGeometry width="50" height="50" relative="1" as="geometry">
            <mxPoint x="839" y="599" as="sourcePoint" />
            <mxPoint x="910" y="669" as="targetPoint" />
            <Array as="points">
              <mxPoint x="880" y="599" />
              <mxPoint x="880" y="659" />
            </Array>
          </mxGeometry>
        </mxCell>
        <mxCell id="yuVk0EhnXVRBRO2mFo1Z-7" value="&lt;font style=&quot;font-size: 9px;&quot;&gt;$$IrPu$$&lt;/font&gt;" style="triangle;whiteSpace=wrap;html=1;align=left;" parent="1" vertex="1">
          <mxGeometry x="-220" y="559" width="60" height="80" as="geometry" />
        </mxCell>
        <mxCell id="yuVk0EhnXVRBRO2mFo1Z-8" value="" style="endArrow=classic;html=1;rounded=0;exitX=1;exitY=0.5;exitDx=0;exitDy=0;entryX=0;entryY=0.5;entryDx=0;entryDy=0;" parent="1" source="yuVk0EhnXVRBRO2mFo1Z-7" target="pcb0Rrb9AqgbB0oOaPCg-12" edge="1">
          <mxGeometry width="50" height="50" relative="1" as="geometry">
            <mxPoint x="200" y="469" as="sourcePoint" />
            <mxPoint x="700" y="479" as="targetPoint" />
            <Array as="points">
              <mxPoint x="200" y="599" />
            </Array>
          </mxGeometry>
        </mxCell>
        <mxCell id="yuVk0EhnXVRBRO2mFo1Z-9" value="" style="endArrow=classic;html=1;rounded=0;exitX=1;exitY=0.5;exitDx=0;exitDy=0;entryX=1;entryY=0.5;entryDx=0;entryDy=0;" parent="1" source="GCO7xrDp6TmdYOZJOnFd-99" target="GCO7xrDp6TmdYOZJOnFd-126" edge="1">
          <mxGeometry width="50" height="50" relative="1" as="geometry">
            <mxPoint x="1440" y="50" as="sourcePoint" />
            <mxPoint x="1290" y="-110" as="targetPoint" />
            <Array as="points">
              <mxPoint x="1440" y="160" />
              <mxPoint x="1440" y="-120" />
            </Array>
          </mxGeometry>
        </mxCell>
        <mxCell id="yuVk0EhnXVRBRO2mFo1Z-10" value="" style="whiteSpace=wrap;html=1;aspect=fixed;" parent="1" vertex="1">
          <mxGeometry x="920" y="-160" width="80" height="80" as="geometry" />
        </mxCell>
        <mxCell id="yuVk0EhnXVRBRO2mFo1Z-11" value="" style="endArrow=none;html=1;" parent="1" edge="1">
          <mxGeometry width="50" height="50" relative="1" as="geometry">
            <mxPoint x="972" y="-105" as="sourcePoint" />
            <mxPoint x="948" y="-135" as="targetPoint" />
          </mxGeometry>
        </mxCell>
        <mxCell id="yuVk0EhnXVRBRO2mFo1Z-12" value="" style="endArrow=none;html=1;" parent="1" edge="1">
          <mxGeometry width="50" height="50" relative="1" as="geometry">
            <mxPoint x="928" y="-135" as="sourcePoint" />
            <mxPoint x="948" y="-135" as="targetPoint" />
          </mxGeometry>
        </mxCell>
        <mxCell id="yuVk0EhnXVRBRO2mFo1Z-13" value="&lt;font style=&quot;font-size: 9px;&quot;&gt;$$VgMaxPu$$&lt;/font&gt;" style="text;html=1;strokeColor=none;fillColor=none;align=center;verticalAlign=middle;whiteSpace=wrap;rounded=0;fontSize=15;" parent="1" vertex="1">
          <mxGeometry x="896" y="-190" width="60" height="30" as="geometry" />
        </mxCell>
        <mxCell id="yuVk0EhnXVRBRO2mFo1Z-14" value="" style="endArrow=classic;html=1;rounded=0;exitX=0;exitY=0.5;exitDx=0;exitDy=0;entryX=1;entryY=0.5;entryDx=0;entryDy=0;" parent="1" source="GCO7xrDp6TmdYOZJOnFd-126" target="yuVk0EhnXVRBRO2mFo1Z-10" edge="1">
          <mxGeometry width="50" height="50" relative="1" as="geometry">
            <mxPoint x="940" y="-100" as="sourcePoint" />
            <mxPoint x="990" y="-150" as="targetPoint" />
          </mxGeometry>
        </mxCell>
        <mxCell id="yuVk0EhnXVRBRO2mFo1Z-15" value="" style="endArrow=classic;html=1;rounded=0;exitX=0;exitY=0.5;exitDx=0;exitDy=0;entryX=0.5;entryY=0;entryDx=0;entryDy=0;" parent="1" source="yuVk0EhnXVRBRO2mFo1Z-10" target="eN8Zq5XajQ-hrPbZrUXH-25" edge="1">
          <mxGeometry width="50" height="50" relative="1" as="geometry">
            <mxPoint x="940" y="-100" as="sourcePoint" />
            <mxPoint x="800" y="150" as="targetPoint" />
            <Array as="points">
              <mxPoint x="800" y="-120" />
            </Array>
          </mxGeometry>
        </mxCell>
        <mxCell id="yuVk0EhnXVRBRO2mFo1Z-27" value="" style="whiteSpace=wrap;html=1;aspect=fixed;" parent="1" vertex="1">
          <mxGeometry x="761" y="859" width="80" height="80" as="geometry" />
        </mxCell>
        <mxCell id="yuVk0EhnXVRBRO2mFo1Z-28" value="" style="endArrow=none;html=1;startArrow=none;" parent="1" source="yuVk0EhnXVRBRO2mFo1Z-36" edge="1">
          <mxGeometry width="50" height="50" relative="1" as="geometry">
            <mxPoint x="821" y="899" as="sourcePoint" />
            <mxPoint x="841" y="899" as="targetPoint" />
          </mxGeometry>
        </mxCell>
        <mxCell id="yuVk0EhnXVRBRO2mFo1Z-29" value="" style="endArrow=none;html=1;" parent="1" edge="1">
          <mxGeometry width="50" height="50" relative="1" as="geometry">
            <mxPoint x="752" y="879" as="sourcePoint" />
            <mxPoint x="782" y="879" as="targetPoint" />
          </mxGeometry>
        </mxCell>
        <mxCell id="yuVk0EhnXVRBRO2mFo1Z-30" value="" style="endArrow=none;html=1;" parent="1" edge="1">
          <mxGeometry width="50" height="50" relative="1" as="geometry">
            <mxPoint x="751" y="898.8" as="sourcePoint" />
            <mxPoint x="781" y="898.8" as="targetPoint" />
          </mxGeometry>
        </mxCell>
        <mxCell id="yuVk0EhnXVRBRO2mFo1Z-31" value="" style="endArrow=none;html=1;" parent="1" edge="1">
          <mxGeometry width="50" height="50" relative="1" as="geometry">
            <mxPoint x="751" y="919" as="sourcePoint" />
            <mxPoint x="781" y="919" as="targetPoint" />
          </mxGeometry>
        </mxCell>
        <mxCell id="yuVk0EhnXVRBRO2mFo1Z-32" value="" style="shape=waypoint;sketch=0;fillStyle=solid;size=4;pointerEvents=1;points=[];fillColor=none;resizable=0;rotatable=0;perimeter=centerPerimeter;snapToPoint=1;" parent="1" vertex="1">
          <mxGeometry x="771" y="869" width="20" height="20" as="geometry" />
        </mxCell>
        <mxCell id="yuVk0EhnXVRBRO2mFo1Z-33" value="" style="shape=waypoint;sketch=0;fillStyle=solid;size=4;pointerEvents=1;points=[];fillColor=none;resizable=0;rotatable=0;perimeter=centerPerimeter;snapToPoint=1;" parent="1" vertex="1">
          <mxGeometry x="771" y="889" width="20" height="20" as="geometry" />
        </mxCell>
        <mxCell id="yuVk0EhnXVRBRO2mFo1Z-34" value="" style="shape=waypoint;sketch=0;fillStyle=solid;size=4;pointerEvents=1;points=[];fillColor=none;resizable=0;rotatable=0;perimeter=centerPerimeter;snapToPoint=1;" parent="1" vertex="1">
          <mxGeometry x="771" y="909" width="20" height="20" as="geometry" />
        </mxCell>
        <mxCell id="yuVk0EhnXVRBRO2mFo1Z-35" value="" style="endArrow=none;html=1;" parent="1" target="yuVk0EhnXVRBRO2mFo1Z-36" edge="1">
          <mxGeometry width="50" height="50" relative="1" as="geometry">
            <mxPoint x="821" y="899" as="sourcePoint" />
            <mxPoint x="841" y="899" as="targetPoint" />
          </mxGeometry>
        </mxCell>
        <mxCell id="yuVk0EhnXVRBRO2mFo1Z-36" value="" style="shape=waypoint;sketch=0;fillStyle=solid;size=4;pointerEvents=1;points=[];fillColor=none;resizable=0;rotatable=0;perimeter=centerPerimeter;snapToPoint=1;" parent="1" vertex="1">
          <mxGeometry x="812" y="889" width="20" height="20" as="geometry" />
        </mxCell>
        <mxCell id="yuVk0EhnXVRBRO2mFo1Z-37" value="" style="endArrow=none;html=1;" parent="1" edge="1">
          <mxGeometry width="50" height="50" relative="1" as="geometry">
            <mxPoint x="781" y="909" as="sourcePoint" />
            <mxPoint x="821" y="899" as="targetPoint" />
          </mxGeometry>
        </mxCell>
        <mxCell id="yuVk0EhnXVRBRO2mFo1Z-38" value="" style="endArrow=classic;html=1;rounded=0;exitX=1;exitY=0.5;exitDx=0;exitDy=0;entryX=0;entryY=0.75;entryDx=0;entryDy=0;" parent="1" source="yuVk0EhnXVRBRO2mFo1Z-27" target="yuVk0EhnXVRBRO2mFo1Z-1" edge="1">
          <mxGeometry width="50" height="50" relative="1" as="geometry">
            <mxPoint x="840" y="619" as="sourcePoint" />
            <mxPoint x="890" y="569" as="targetPoint" />
            <Array as="points">
              <mxPoint x="880" y="899" />
              <mxPoint x="880" y="699" />
            </Array>
          </mxGeometry>
        </mxCell>
        <mxCell id="yuVk0EhnXVRBRO2mFo1Z-39" value="$$Kc$$" style="rounded=0;whiteSpace=wrap;html=1;" parent="1" vertex="1">
          <mxGeometry x="601" y="979" width="80" height="80" as="geometry" />
        </mxCell>
        <mxCell id="yuVk0EhnXVRBRO2mFo1Z-40" value="$$Sw1$$" style="rounded=0;whiteSpace=wrap;html=1;" parent="1" vertex="1">
          <mxGeometry x="601" y="859" width="80" height="80" as="geometry" />
        </mxCell>
        <mxCell id="yuVk0EhnXVRBRO2mFo1Z-42" value="" style="endArrow=classic;html=1;rounded=0;exitX=1;exitY=0.5;exitDx=0;exitDy=0;entryX=0;entryY=0.636;entryDx=0;entryDy=0;entryPerimeter=0;" parent="1" source="yuVk0EhnXVRBRO2mFo1Z-40" target="yuVk0EhnXVRBRO2mFo1Z-33" edge="1">
          <mxGeometry width="50" height="50" relative="1" as="geometry">
            <mxPoint x="371" y="909" as="sourcePoint" />
            <mxPoint x="421" y="859" as="targetPoint" />
          </mxGeometry>
        </mxCell>
        <mxCell id="yuVk0EhnXVRBRO2mFo1Z-43" value="" style="endArrow=classic;html=1;rounded=0;exitX=1;exitY=0.5;exitDx=0;exitDy=0;entryX=0.429;entryY=0.16;entryDx=0;entryDy=0;entryPerimeter=0;" parent="1" source="GCO7xrDp6TmdYOZJOnFd-100" target="yuVk0EhnXVRBRO2mFo1Z-32" edge="1">
          <mxGeometry width="50" height="50" relative="1" as="geometry">
            <mxPoint x="371" y="909" as="sourcePoint" />
            <mxPoint x="421" y="859" as="targetPoint" />
            <Array as="points">
              <mxPoint x="721" y="779" />
              <mxPoint x="721" y="879" />
            </Array>
          </mxGeometry>
        </mxCell>
        <mxCell id="yuVk0EhnXVRBRO2mFo1Z-44" value="" style="endArrow=classic;html=1;rounded=0;exitX=1;exitY=0.5;exitDx=0;exitDy=0;entryX=0.286;entryY=0.445;entryDx=0;entryDy=0;entryPerimeter=0;" parent="1" source="yuVk0EhnXVRBRO2mFo1Z-39" target="yuVk0EhnXVRBRO2mFo1Z-34" edge="1">
          <mxGeometry width="50" height="50" relative="1" as="geometry">
            <mxPoint x="371" y="909" as="sourcePoint" />
            <mxPoint x="421" y="859" as="targetPoint" />
            <Array as="points">
              <mxPoint x="721" y="1019" />
              <mxPoint x="721" y="919" />
            </Array>
          </mxGeometry>
        </mxCell>
        <mxCell id="yuVk0EhnXVRBRO2mFo1Z-45" value="" style="endArrow=classic;html=1;rounded=0;exitX=1.14;exitY=0.54;exitDx=0;exitDy=0;exitPerimeter=0;entryX=0;entryY=0.75;entryDx=0;entryDy=0;" parent="1" source="yuVk0EhnXVRBRO2mFo1Z-36" target="pcb0Rrb9AqgbB0oOaPCg-9" edge="1">
          <mxGeometry width="50" height="50" relative="1" as="geometry">
            <mxPoint x="920" y="689" as="sourcePoint" />
            <mxPoint x="1200" y="679" as="targetPoint" />
            <Array as="points">
              <mxPoint x="1160" y="899" />
              <mxPoint x="1160" y="779" />
            </Array>
          </mxGeometry>
        </mxCell>
        <mxCell id="yuVk0EhnXVRBRO2mFo1Z-46" value="&lt;font style=&quot;font-size: 9px;&quot;&gt;$$utPu$$&lt;/font&gt;" style="triangle;whiteSpace=wrap;html=1;align=left;" parent="1" vertex="1">
          <mxGeometry x="-220" y="679" width="60" height="80" as="geometry" />
        </mxCell>
        <mxCell id="yuVk0EhnXVRBRO2mFo1Z-47" value="&lt;font style=&quot;font-size: 9px;&quot;&gt;$$itPu$$&lt;/font&gt;" style="triangle;whiteSpace=wrap;html=1;align=left;" parent="1" vertex="1">
          <mxGeometry x="-220" y="800" width="60" height="80" as="geometry" />
        </mxCell>
        <mxCell id="yuVk0EhnXVRBRO2mFo1Z-48" value="" style="endArrow=classic;html=1;rounded=0;exitX=1;exitY=0.5;exitDx=0;exitDy=0;entryX=0;entryY=0.25;entryDx=0;entryDy=0;" parent="1" source="yuVk0EhnXVRBRO2mFo1Z-46" target="GCO7xrDp6TmdYOZJOnFd-100" edge="1">
          <mxGeometry width="50" height="50" relative="1" as="geometry">
            <mxPoint x="310" y="949" as="sourcePoint" />
            <mxPoint x="360" y="899" as="targetPoint" />
            <Array as="points">
              <mxPoint x="560" y="719" />
              <mxPoint x="560" y="759" />
            </Array>
          </mxGeometry>
        </mxCell>
        <mxCell id="yuVk0EhnXVRBRO2mFo1Z-49" value="" style="endArrow=classic;html=1;rounded=0;exitX=1;exitY=0.5;exitDx=0;exitDy=0;entryX=0;entryY=0.75;entryDx=0;entryDy=0;" parent="1" source="yuVk0EhnXVRBRO2mFo1Z-47" target="GCO7xrDp6TmdYOZJOnFd-100" edge="1">
          <mxGeometry width="50" height="50" relative="1" as="geometry">
            <mxPoint x="310" y="949" as="sourcePoint" />
            <mxPoint x="360" y="899" as="targetPoint" />
            <Array as="points">
              <mxPoint x="560" y="840" />
              <mxPoint x="560" y="799" />
            </Array>
          </mxGeometry>
        </mxCell>
        <mxCell id="yuVk0EhnXVRBRO2mFo1Z-50" value="" style="endArrow=classic;html=1;rounded=0;exitX=1;exitY=0.5;exitDx=0;exitDy=0;entryX=0;entryY=0.25;entryDx=0;entryDy=0;" parent="1" source="yuVk0EhnXVRBRO2mFo1Z-2" target="pcb0Rrb9AqgbB0oOaPCg-9" edge="1">
          <mxGeometry width="50" height="50" relative="1" as="geometry">
            <mxPoint x="720" y="699" as="sourcePoint" />
            <mxPoint x="770" y="649" as="targetPoint" />
            <Array as="points">
              <mxPoint x="1160" y="679" />
              <mxPoint x="1160" y="739" />
            </Array>
          </mxGeometry>
        </mxCell>
        <mxCell id="7DAJ01DO-ljsbk4PDC51-1" value="&lt;font style=&quot;font-size: 9px;&quot;&gt;$$USclUelPu$$&lt;/font&gt;" style="triangle;whiteSpace=wrap;html=1;align=left;" vertex="1" parent="1">
          <mxGeometry x="-221" y="440" width="60" height="80" as="geometry" />
        </mxCell>
        <mxCell id="7DAJ01DO-ljsbk4PDC51-2" value="&lt;font style=&quot;font-size: 9px;&quot;&gt;$$USclOelPu$$&lt;/font&gt;" style="triangle;whiteSpace=wrap;html=1;align=left;" vertex="1" parent="1">
          <mxGeometry x="-220" y="-320" width="60" height="80" as="geometry" />
        </mxCell>
      </root>
    </mxGraphModel>
  </diagram>
</mxfile>
